<svg width="46.637mm" height="45.957mm" version="1.1" viewBox="0 0 46.637497 45.957142" xmlns="http://www.w3.org/2000/svg">
 <g transform="rotate(-12.384 35.086 51.718)" fill="#1a1a1a">
  <path transform="matrix(.078188 .89063 -.39593 .10386 61.773 41.674)" d="m-24.147 47.126c-2.2032 1.6524-9.2528 0.6453-10.905-1.5579-1.6524-2.2032-0.6453-9.2528 1.5579-10.905 2.2032-1.6524 9.2528-0.6453 10.905 1.5579 1.6524 2.2032 0.6453 9.2528-1.5579 10.905z"/>
  <path transform="matrix(.062063 .44531 -.31428 .05193 60.988 30.768)" d="m-24.147 47.126c-2.2032 1.6524-9.2528 0.6453-10.905-1.5579-1.6524-2.2032-0.6453-9.2528 1.5579-10.905 2.2032-1.6524 9.2528-0.6453 10.905 1.5579 1.6524 2.2032 0.6453 9.2528-1.5579 10.905z"/>
 </g>
 <g transform="matrix(-.97369 .22788 .22788 .97369 47.557 -4.3024)" fill="#1a1a1a">
  <path transform="matrix(.078188 .89063 -.39593 .10386 61.773 41.674)" d="m-24.147 47.126c-2.2032 1.6524-9.2528 0.6453-10.905-1.5579-1.6524-2.2032-0.6453-9.2528 1.5579-10.905 2.2032-1.6524 9.2528-0.6453 10.905 1.5579 1.6524 2.2032 0.6453 9.2528-1.5579 10.905z"/>
  <path transform="matrix(.062063 .44531 -.31428 .05193 60.988 30.768)" d="m-24.147 47.126c-2.2032 1.6524-9.2528 0.6453-10.905-1.5579-1.6524-2.2032-0.6453-9.2528 1.5579-10.905 2.2032-1.6524 9.2528-0.6453 10.905 1.5579 1.6524 2.2032 0.6453 9.2528-1.5579 10.905z"/>
 </g>
 <g transform="matrix(.57571 0 0 .57571 -42.181 -65.317)">
  <ellipse cx="113.77" cy="153.37" rx="23.019" ry="22.679" fill="#ff0" stroke="#000" stroke-width=".6"/>
  <g fill="none">
   <ellipse cx="113.77" cy="153.37" rx="22.789" ry="22.452" stroke="#fff" stroke-width=".3969"/>
   <g transform="matrix(.3 0 0 .3 118.1 104.49)" stroke="#000" stroke-width="1.3229">
    <path d="m-74.984 159.53 41.955-24.995"/>
    <path d="m-66.95 132.75 27.97 30.351"/>
   </g>
   <g transform="matrix(.3 0 0 .3 138.88 102.94)" stroke="#000" stroke-width="1.3229">
    <path d="m-74.984 159.53 41.955-24.995"/>
    <path d="m-66.95 132.75 27.97 30.351"/>
   </g>
  </g>
  <g transform="translate(-6.9363,-24.558)">
   <g transform="matrix(.29999 -.0027238 .0027238 .29999 140.14 139.43)">
    <path d="m-25.691 144.82-53.865 16.766a29.309 31.541 8.5916 0 0 24.575 32.153 29.309 31.541 8.5916 0 0 33.692 -26.808 29.309 31.541 8.5916 0 0 -4.4017 -22.11z" fill="#faa" stroke="#fff" stroke-width="1.3229"/>
    <path d="m-54.02 152.92c3.877 8.5737 7.7543 17.148 11.632 25.724" fill="none" stroke="#000" stroke-width=".95773"/>
   </g>
   <path d="m111.09 190.18c8.9574-2.9759 17.914-5.9514 26.869-8.9267" fill="none" stroke="#000" stroke-width=".6"/>
  </g>
 </g>
 <path d="m9.294 20.145s0.6968-7.083 7.292-10.027c2.3854-1.0648 8.637-2.1412 11.838-0.80397 3.201 1.3372 6.1562 4.6093 6.1562 4.6093" fill="none" stroke="#000" stroke-width="1.3229"/>
</svg>
